<svg width="568" height="433" viewBox="0 0 568 433" fill="none" xmlns="http://www.w3.org/2000/svg">
<g filter="url(#filter0_dddddddd_167_3356)">
<path d="M55.4493 402H162.799V379.01H84.5193C85.4693 370.84 92.4993 365.52 102.379 360.39C107.509 358.11 113.019 355.45 118.529 352.98C129.169 348.23 139.809 342.91 148.739 335.69C157.479 328.28 162.989 318.78 162.989 305.29C162.989 289.33 155.009 276.79 139.809 269.57C132.209 265.96 122.709 264.25 111.499 264.25C76.3493 264.25 56.9693 280.4 56.9693 311.18V316.69H82.4293V312.32C82.4293 295.22 92.3093 285.72 111.119 285.72C128.219 285.72 137.149 292.56 137.149 306.62C137.149 316.12 129.929 322.39 118.909 327.71C113.399 330.56 107.889 333.03 101.429 335.88C90.4093 340.63 79.1993 345.95 70.2693 353.36C61.1493 360.77 55.4493 370.27 55.4493 383.76V402ZM226.794 404.85C249.784 404.85 266.884 395.16 276.384 376.16C280.944 366.47 283.414 354.69 283.414 340.44V329.04C283.414 300.54 273.724 281.35 256.624 271.47C247.884 266.34 238.194 264.06 226.794 264.06C190.884 264.06 170.364 286.67 170.364 329.23V340.44C170.364 383.38 190.314 404.85 226.794 404.85ZM226.794 382.05C205.704 382.05 196.584 367.23 196.584 339.49V330.18C196.584 302.25 205.704 286.67 226.794 286.67C247.504 286.67 257.004 302.25 257.004 330.18V339.3C257.004 367.8 247.124 382.05 226.794 382.05ZM287.398 402H394.748V379.01H316.468C317.418 370.84 324.448 365.52 334.328 360.39C339.458 358.11 344.968 355.45 350.478 352.98C361.118 348.23 371.758 342.91 380.688 335.69C389.428 328.28 394.938 318.78 394.938 305.29C394.938 289.33 386.958 276.79 371.758 269.57C364.158 265.96 354.658 264.25 343.448 264.25C308.298 264.25 288.918 280.4 288.918 311.18V316.69H314.378V312.32C314.378 295.22 324.258 285.72 343.068 285.72C360.168 285.72 369.098 292.56 369.098 306.62C369.098 316.12 361.878 322.39 350.858 327.71C345.348 330.56 339.838 333.03 333.378 335.88C322.358 340.63 311.148 345.95 302.218 353.36C293.098 360.77 287.398 370.27 287.398 383.76V402ZM455.485 404.66C479.235 404.66 495.575 397.63 504.505 385.09C508.875 379.01 510.965 371.98 510.965 363.81C510.965 347.09 503.365 337.21 490.445 332.65C502.605 327.52 508.685 318.02 508.685 303.2C508.685 280.02 490.065 264.25 456.625 264.25C421.665 264.25 402.665 281.73 402.665 309.28V312.32H427.745V310.23C427.745 295.98 437.815 286.48 455.865 286.48C473.915 286.48 482.655 294.27 482.655 306.05C482.655 318.02 475.435 324.29 459.095 324.29H443.135V343.86H459.095C475.625 343.86 484.365 347.28 484.365 360.96C484.365 373.88 473.155 382.24 455.105 382.24C434.965 382.24 426.035 374.83 426.035 357.73V355.26H400.575V359.06C400.575 390.03 416.725 404.66 455.485 404.66Z" fill="#00FF99"/>
</g>
<g filter="url(#filter1_dddddddd_167_3356)">
<path d="M69.02 241H87.5V173.56L104.78 68.92H87.02L80.54 119.56L78.38 152.68L76.46 119.56L69.98 68.92H51.98L69.02 175.24V241ZM148.612 241V223.24H129.172V162.28H146.932V144.52H129.172V86.44H148.132V68.92H111.412V241H148.612ZM188.956 219.64L190.636 241H208.396L190.396 68.92H171.916L155.116 241H172.396L174.076 219.64H188.956ZM175.276 203.32L179.836 140.44L181.276 101.56L182.716 140.44L187.756 203.32H175.276ZM232.76 167.32H237.8C244.52 167.32 246.44 170.2 246.44 177.64V230.68C246.44 235.24 247.16 239.32 248.84 241H267.56C265.4 238.36 264.44 235 264.44 230.44V176.2C264.44 165.88 261.32 160.36 254.6 158.2C261.08 155.56 263.96 149.56 263.96 139.96V91C263.96 75.16 257.48 68.92 238.76 68.92H215.24V241H232.76V167.32ZM232.76 84.28H237.08C244.52 84.28 246.68 86.44 246.68 93.16V140.92C246.68 146.92 243.56 150.28 237.56 150.28H232.76V84.28ZM275.709 241H301.389C318.189 241 326.109 233.56 326.109 219.16V168.76C326.109 159.64 322.749 154.84 316.269 151.96C322.029 149.08 324.909 143.08 324.909 134.44V90.52C324.909 76.36 318.669 68.92 300.669 68.92H275.709V241ZM293.469 84.04H297.789C304.269 84.04 307.149 86.44 307.149 93.16V133.72C307.149 140.2 304.269 143.56 298.509 143.56H293.469V84.04ZM293.469 160.36H298.509C304.989 160.36 307.389 162.76 307.389 169.48V215.8C307.389 222.76 305.229 225.16 298.509 225.16H293.469V160.36ZM362.081 242.92C378.161 242.92 387.761 235.48 387.761 217.72V91.96C387.761 75.64 378.401 67.24 362.321 67.24C346.481 67.24 336.401 75.64 336.401 91.96V217.72C336.401 235.48 346.721 242.92 362.081 242.92ZM362.321 225.4C356.801 225.4 354.881 222.04 354.881 215.32V93.16C354.881 86.44 357.281 83.32 362.081 83.32C367.121 83.32 369.521 86.44 369.521 93.16V215.32C369.521 222.04 367.121 225.4 362.321 225.4ZM424.659 242.92C440.739 242.92 450.339 235.48 450.339 217.72V91.96C450.339 75.64 440.979 67.24 424.899 67.24C409.059 67.24 398.979 75.64 398.979 91.96V217.72C398.979 235.48 409.299 242.92 424.659 242.92ZM424.899 225.4C419.379 225.4 417.459 222.04 417.459 215.32V93.16C417.459 86.44 419.859 83.32 424.659 83.32C429.699 83.32 432.099 86.44 432.099 93.16V215.32C432.099 222.04 429.699 225.4 424.899 225.4ZM484.351 153.64L484.591 159.4L498.991 241H516.751L496.831 138.28L515.551 68.92H498.751L482.671 128.44L476.431 158.2L479.551 126.28V68.92H462.271V241H479.551V172.12L484.351 153.64Z" fill="#E646B6"/>
</g>
<g filter="url(#filter2_dddd_167_3356)">
<path d="M237.597 15.864C233.181 11.4 229.053 10.44 224.397 10.44C211.773 10.44 206.013 19.464 206.013 28.248C206.013 37.032 211.053 45.912 224.349 45.912C230.829 45.912 236.685 43.608 238.797 39.336V24.408H222.381V31.848H230.877V36.168C228.957 37.56 226.173 37.896 224.397 37.896C217.629 37.896 215.373 32.568 215.373 28.248C215.373 21.672 218.925 18.408 224.397 18.408C226.653 18.408 229.629 19.032 232.077 21.336L237.597 15.864ZM253.622 45V11.4H244.166V45H253.622ZM269.935 19.56H276.751C279.343 19.56 280.735 21.576 280.735 23.784C280.735 25.992 279.391 27.912 276.751 27.912H269.935V19.56ZM276.751 35.928C285.727 35.832 290.239 30.504 290.239 23.64C290.239 17.064 285.775 11.4 276.751 11.4H260.431V45H269.935V35.928H276.751ZM325.471 45.048V11.448H316.063V24.216H303.967V11.448H294.463V45.048H303.967V32.328H316.063V45.048H325.471ZM339.299 11.4H328.595V11.784L341.363 31.608V45H350.867V31.608L364.211 11.832V11.4H353.507L346.259 22.92L339.299 11.4Z" fill="white"/>
</g>
<defs>
<filter id="filter0_dddddddd_167_3356" x="47.4493" y="264.06" width="463.516" height="148.79" filterUnits="userSpaceOnUse" color-interpolation-filters="sRGB">
<feFlood flood-opacity="0" result="BackgroundImageFix"/>
<feColorMatrix in="SourceAlpha" type="matrix" values="0 0 0 0 0 0 0 0 0 0 0 0 0 0 0 0 0 0 127 0" result="hardAlpha"/>
<feOffset dx="-1" dy="1"/>
<feComposite in2="hardAlpha" operator="out"/>
<feColorMatrix type="matrix" values="0 0 0 0 0 0 0 0 0 0.633333 0 0 0 0 0.38 0 0 0 1 0"/>
<feBlend mode="normal" in2="BackgroundImageFix" result="effect1_dropShadow_167_3356"/>
<feColorMatrix in="SourceAlpha" type="matrix" values="0 0 0 0 0 0 0 0 0 0 0 0 0 0 0 0 0 0 127 0" result="hardAlpha"/>
<feOffset dx="-2" dy="2"/>
<feComposite in2="hardAlpha" operator="out"/>
<feColorMatrix type="matrix" values="0 0 0 0 0 0 0 0 0 0.633333 0 0 0 0 0.38 0 0 0 1 0"/>
<feBlend mode="normal" in2="effect1_dropShadow_167_3356" result="effect2_dropShadow_167_3356"/>
<feColorMatrix in="SourceAlpha" type="matrix" values="0 0 0 0 0 0 0 0 0 0 0 0 0 0 0 0 0 0 127 0" result="hardAlpha"/>
<feOffset dx="-3" dy="3"/>
<feComposite in2="hardAlpha" operator="out"/>
<feColorMatrix type="matrix" values="0 0 0 0 0 0 0 0 0 0.633333 0 0 0 0 0.38 0 0 0 1 0"/>
<feBlend mode="normal" in2="effect2_dropShadow_167_3356" result="effect3_dropShadow_167_3356"/>
<feColorMatrix in="SourceAlpha" type="matrix" values="0 0 0 0 0 0 0 0 0 0 0 0 0 0 0 0 0 0 127 0" result="hardAlpha"/>
<feOffset dx="-4" dy="4"/>
<feComposite in2="hardAlpha" operator="out"/>
<feColorMatrix type="matrix" values="0 0 0 0 0 0 0 0 0 0.633333 0 0 0 0 0.38 0 0 0 1 0"/>
<feBlend mode="normal" in2="effect3_dropShadow_167_3356" result="effect4_dropShadow_167_3356"/>
<feColorMatrix in="SourceAlpha" type="matrix" values="0 0 0 0 0 0 0 0 0 0 0 0 0 0 0 0 0 0 127 0" result="hardAlpha"/>
<feOffset dx="-5" dy="5"/>
<feComposite in2="hardAlpha" operator="out"/>
<feColorMatrix type="matrix" values="0 0 0 0 0 0 0 0 0 0.633333 0 0 0 0 0.38 0 0 0 1 0"/>
<feBlend mode="normal" in2="effect4_dropShadow_167_3356" result="effect5_dropShadow_167_3356"/>
<feColorMatrix in="SourceAlpha" type="matrix" values="0 0 0 0 0 0 0 0 0 0 0 0 0 0 0 0 0 0 127 0" result="hardAlpha"/>
<feOffset dx="-6" dy="6"/>
<feComposite in2="hardAlpha" operator="out"/>
<feColorMatrix type="matrix" values="0 0 0 0 0 0 0 0 0 0.633333 0 0 0 0 0.38 0 0 0 1 0"/>
<feBlend mode="normal" in2="effect5_dropShadow_167_3356" result="effect6_dropShadow_167_3356"/>
<feColorMatrix in="SourceAlpha" type="matrix" values="0 0 0 0 0 0 0 0 0 0 0 0 0 0 0 0 0 0 127 0" result="hardAlpha"/>
<feOffset dx="-7" dy="7"/>
<feComposite in2="hardAlpha" operator="out"/>
<feColorMatrix type="matrix" values="0 0 0 0 0 0 0 0 0 0.633333 0 0 0 0 0.38 0 0 0 1 0"/>
<feBlend mode="normal" in2="effect6_dropShadow_167_3356" result="effect7_dropShadow_167_3356"/>
<feColorMatrix in="SourceAlpha" type="matrix" values="0 0 0 0 0 0 0 0 0 0 0 0 0 0 0 0 0 0 127 0" result="hardAlpha"/>
<feOffset dx="-8" dy="8"/>
<feComposite in2="hardAlpha" operator="out"/>
<feColorMatrix type="matrix" values="0 0 0 0 0 0 0 0 0 0.633333 0 0 0 0 0.38 0 0 0 1 0"/>
<feBlend mode="normal" in2="effect7_dropShadow_167_3356" result="effect8_dropShadow_167_3356"/>
<feBlend mode="normal" in="SourceGraphic" in2="effect8_dropShadow_167_3356" result="shape"/>
</filter>
<filter id="filter1_dddddddd_167_3356" x="43.98" y="67.24" width="472.771" height="183.68" filterUnits="userSpaceOnUse" color-interpolation-filters="sRGB">
<feFlood flood-opacity="0" result="BackgroundImageFix"/>
<feColorMatrix in="SourceAlpha" type="matrix" values="0 0 0 0 0 0 0 0 0 0 0 0 0 0 0 0 0 0 127 0" result="hardAlpha"/>
<feOffset dx="-1" dy="1"/>
<feComposite in2="hardAlpha" operator="out"/>
<feColorMatrix type="matrix" values="0 0 0 0 0.570833 0 0 0 0 0.168872 0 0 0 0 0.450245 0 0 0 1 0"/>
<feBlend mode="normal" in2="BackgroundImageFix" result="effect1_dropShadow_167_3356"/>
<feColorMatrix in="SourceAlpha" type="matrix" values="0 0 0 0 0 0 0 0 0 0 0 0 0 0 0 0 0 0 127 0" result="hardAlpha"/>
<feOffset dx="-2" dy="2"/>
<feComposite in2="hardAlpha" operator="out"/>
<feColorMatrix type="matrix" values="0 0 0 0 0.570833 0 0 0 0 0.168872 0 0 0 0 0.450245 0 0 0 1 0"/>
<feBlend mode="normal" in2="effect1_dropShadow_167_3356" result="effect2_dropShadow_167_3356"/>
<feColorMatrix in="SourceAlpha" type="matrix" values="0 0 0 0 0 0 0 0 0 0 0 0 0 0 0 0 0 0 127 0" result="hardAlpha"/>
<feOffset dx="-3" dy="3"/>
<feComposite in2="hardAlpha" operator="out"/>
<feColorMatrix type="matrix" values="0 0 0 0 0.570833 0 0 0 0 0.168872 0 0 0 0 0.450245 0 0 0 1 0"/>
<feBlend mode="normal" in2="effect2_dropShadow_167_3356" result="effect3_dropShadow_167_3356"/>
<feColorMatrix in="SourceAlpha" type="matrix" values="0 0 0 0 0 0 0 0 0 0 0 0 0 0 0 0 0 0 127 0" result="hardAlpha"/>
<feOffset dx="-4" dy="4"/>
<feComposite in2="hardAlpha" operator="out"/>
<feColorMatrix type="matrix" values="0 0 0 0 0.570833 0 0 0 0 0.168872 0 0 0 0 0.450245 0 0 0 1 0"/>
<feBlend mode="normal" in2="effect3_dropShadow_167_3356" result="effect4_dropShadow_167_3356"/>
<feColorMatrix in="SourceAlpha" type="matrix" values="0 0 0 0 0 0 0 0 0 0 0 0 0 0 0 0 0 0 127 0" result="hardAlpha"/>
<feOffset dx="-5" dy="5"/>
<feComposite in2="hardAlpha" operator="out"/>
<feColorMatrix type="matrix" values="0 0 0 0 0.570833 0 0 0 0 0.168872 0 0 0 0 0.450245 0 0 0 1 0"/>
<feBlend mode="normal" in2="effect4_dropShadow_167_3356" result="effect5_dropShadow_167_3356"/>
<feColorMatrix in="SourceAlpha" type="matrix" values="0 0 0 0 0 0 0 0 0 0 0 0 0 0 0 0 0 0 127 0" result="hardAlpha"/>
<feOffset dx="-6" dy="6"/>
<feComposite in2="hardAlpha" operator="out"/>
<feColorMatrix type="matrix" values="0 0 0 0 0.570833 0 0 0 0 0.168872 0 0 0 0 0.450245 0 0 0 1 0"/>
<feBlend mode="normal" in2="effect5_dropShadow_167_3356" result="effect6_dropShadow_167_3356"/>
<feColorMatrix in="SourceAlpha" type="matrix" values="0 0 0 0 0 0 0 0 0 0 0 0 0 0 0 0 0 0 127 0" result="hardAlpha"/>
<feOffset dx="-7" dy="7"/>
<feComposite in2="hardAlpha" operator="out"/>
<feColorMatrix type="matrix" values="0 0 0 0 0.570833 0 0 0 0 0.168872 0 0 0 0 0.450245 0 0 0 1 0"/>
<feBlend mode="normal" in2="effect6_dropShadow_167_3356" result="effect7_dropShadow_167_3356"/>
<feColorMatrix in="SourceAlpha" type="matrix" values="0 0 0 0 0 0 0 0 0 0 0 0 0 0 0 0 0 0 127 0" result="hardAlpha"/>
<feOffset dx="-8" dy="8"/>
<feComposite in2="hardAlpha" operator="out"/>
<feColorMatrix type="matrix" values="0 0 0 0 0.570833 0 0 0 0 0.168872 0 0 0 0 0.450245 0 0 0 1 0"/>
<feBlend mode="normal" in2="effect7_dropShadow_167_3356" result="effect8_dropShadow_167_3356"/>
<feBlend mode="normal" in="SourceGraphic" in2="effect8_dropShadow_167_3356" result="shape"/>
</filter>
<filter id="filter2_dddd_167_3356" x="202.012" y="10.44" width="162.198" height="39.472" filterUnits="userSpaceOnUse" color-interpolation-filters="sRGB">
<feFlood flood-opacity="0" result="BackgroundImageFix"/>
<feColorMatrix in="SourceAlpha" type="matrix" values="0 0 0 0 0 0 0 0 0 0 0 0 0 0 0 0 0 0 127 0" result="hardAlpha"/>
<feOffset dx="-1" dy="1"/>
<feComposite in2="hardAlpha" operator="out"/>
<feColorMatrix type="matrix" values="0 0 0 0 0.584314 0 0 0 0 0.584314 0 0 0 0 0.584314 0 0 0 1 0"/>
<feBlend mode="normal" in2="BackgroundImageFix" result="effect1_dropShadow_167_3356"/>
<feColorMatrix in="SourceAlpha" type="matrix" values="0 0 0 0 0 0 0 0 0 0 0 0 0 0 0 0 0 0 127 0" result="hardAlpha"/>
<feOffset dx="-2" dy="2"/>
<feComposite in2="hardAlpha" operator="out"/>
<feColorMatrix type="matrix" values="0 0 0 0 0.584314 0 0 0 0 0.584314 0 0 0 0 0.584314 0 0 0 1 0"/>
<feBlend mode="normal" in2="effect1_dropShadow_167_3356" result="effect2_dropShadow_167_3356"/>
<feColorMatrix in="SourceAlpha" type="matrix" values="0 0 0 0 0 0 0 0 0 0 0 0 0 0 0 0 0 0 127 0" result="hardAlpha"/>
<feOffset dx="-3" dy="3"/>
<feComposite in2="hardAlpha" operator="out"/>
<feColorMatrix type="matrix" values="0 0 0 0 0.584314 0 0 0 0 0.584314 0 0 0 0 0.584314 0 0 0 1 0"/>
<feBlend mode="normal" in2="effect2_dropShadow_167_3356" result="effect3_dropShadow_167_3356"/>
<feColorMatrix in="SourceAlpha" type="matrix" values="0 0 0 0 0 0 0 0 0 0 0 0 0 0 0 0 0 0 127 0" result="hardAlpha"/>
<feOffset dx="-4" dy="4"/>
<feComposite in2="hardAlpha" operator="out"/>
<feColorMatrix type="matrix" values="0 0 0 0 0.583485 0 0 0 0 0.583485 0 0 0 0 0.583485 0 0 0 1 0"/>
<feBlend mode="normal" in2="effect3_dropShadow_167_3356" result="effect4_dropShadow_167_3356"/>
<feBlend mode="normal" in="SourceGraphic" in2="effect4_dropShadow_167_3356" result="shape"/>
</filter>
</defs>
</svg>
