<svg width="568" height="433" viewBox="0 0 568 433" fill="none" xmlns="http://www.w3.org/2000/svg">
<path fill-rule="evenodd" clip-rule="evenodd" d="M264.984 391.585C269.088 387.601 272.569 382.789 275.384 377.16C279.944 367.47 282.414 355.69 282.414 341.44V330.04C282.414 328.909 282.398 327.792 282.368 326.69H304.378V325.69H305.378V324.69H306.378V323.69H307.378V322.69H308.378V321.69H309.378V320.69H310.378V319.69H311.378V318.69H312.378V317.69H313.378V313.32C313.378 307.824 314.398 303.114 316.408 299.251C320.799 296.926 326.367 295.72 333.068 295.72C350.168 295.72 359.098 302.56 359.098 316.62C359.098 319.611 358.382 322.282 357.057 324.704C354.905 326.115 352.49 327.439 349.858 328.71C344.348 331.56 338.838 334.03 332.378 336.88C321.358 341.63 310.148 346.95 301.218 354.36C299.689 355.602 298.257 356.902 296.931 358.271C296.591 358.6 296.258 358.933 295.931 359.271C295.591 359.6 295.258 359.933 294.931 360.271C294.591 360.6 294.258 360.933 293.931 361.271C293.592 361.6 293.258 361.933 292.931 362.271C292.592 362.6 292.258 362.933 291.931 363.271C291.591 363.6 291.258 363.933 290.931 364.271C290.591 364.6 290.258 364.933 289.931 365.271C289.591 365.6 289.258 365.933 288.931 366.271C281.749 373.233 277.398 381.973 277.398 393.76V412H384.748V411H385.748V410H386.748V409H387.748V408H388.748V407H389.748V406H390.748V405H391.748V404H392.748V403H393.748V389.367C400.137 406.468 416.481 414.66 445.485 414.66C466.305 414.66 481.43 409.258 490.861 399.478C491.201 399.15 491.534 398.816 491.861 398.478C492.201 398.15 492.534 397.816 492.861 397.478C493.201 397.15 493.534 396.816 493.861 396.478C494.201 396.15 494.534 395.816 494.861 395.478C495.201 395.15 495.534 394.816 495.861 394.478C496.201 394.15 496.535 393.816 496.861 393.478C497.201 393.15 497.534 392.816 497.861 392.478C498.201 392.15 498.534 391.816 498.861 391.478C500.584 389.816 502.132 388.018 503.505 386.09C507.875 380.01 509.965 372.98 509.965 364.81C509.965 349.206 503.346 339.56 491.962 334.635L492.023 334.57C492.367 334.245 492.7 333.912 493.023 333.57C493.367 333.245 493.7 332.912 494.023 332.57C494.367 332.245 494.7 331.911 495.023 331.57C495.367 331.245 495.7 330.911 496.023 330.57C496.367 330.245 496.7 329.911 497.023 329.57C497.367 329.245 497.7 328.911 498.023 328.57C498.367 328.245 498.7 327.912 499.023 327.57C504.798 322.099 507.685 314.413 507.685 304.2C507.685 281.02 489.065 265.25 455.625 265.25C436.332 265.25 421.9 270.573 412.839 279.975C412.499 280.303 412.165 280.637 411.839 280.975C411.499 281.303 411.166 281.636 410.839 281.975C410.499 282.303 410.166 282.636 409.839 282.975C409.499 283.303 409.165 283.636 408.839 283.975C408.499 284.303 408.165 284.637 407.839 284.975C407.499 285.303 407.165 285.636 406.839 285.975C406.499 286.303 406.166 286.636 405.839 286.975C405.499 287.303 405.166 287.636 404.839 287.975C399.375 293.242 395.702 299.888 393.918 307.672C393.931 307.216 393.938 306.755 393.938 306.29C393.938 290.33 385.958 277.79 370.758 270.57C363.158 266.96 353.658 265.25 342.448 265.25C323.087 265.25 308.511 270.15 299.322 279.695C298.982 280.022 298.649 280.356 298.322 280.695C297.982 281.022 297.649 281.355 297.322 281.695C296.982 282.022 296.649 282.356 296.322 282.695C295.982 283.022 295.649 283.356 295.322 283.695C294.982 284.022 294.649 284.356 294.322 284.695C293.982 285.022 293.649 285.356 293.322 285.695C292.982 286.022 292.649 286.356 292.322 286.695C291.982 287.022 291.649 287.356 291.322 287.695C285.772 293.038 282.026 299.947 280.203 308.371C276.434 291.562 267.956 279.595 255.624 272.47C246.884 267.34 237.194 265.06 225.794 265.06C208.787 265.06 195.232 270.131 185.673 279.991C185.335 280.319 185.002 280.653 184.673 280.992C184.335 281.319 184.002 281.652 183.673 281.991C183.335 282.319 183.002 282.653 182.673 282.992C182.335 283.319 182.002 283.653 181.673 283.992C181.335 284.319 181.002 284.653 180.673 284.991C180.335 285.319 180.002 285.653 179.673 285.992C179.335 286.319 179.002 286.653 178.673 286.991C178.335 287.319 178.002 287.653 177.673 287.992C166.407 298.912 160.364 316.133 160.364 339.23V350.44C160.364 393.38 180.314 414.85 216.794 414.85C233.533 414.85 247.149 409.713 256.984 399.585C257.321 399.258 257.654 398.924 257.984 398.585C258.321 398.258 258.654 397.924 258.984 397.585C259.321 397.258 259.654 396.924 259.984 396.585C260.321 396.258 260.654 395.924 260.984 395.585C261.321 395.258 261.654 394.924 261.983 394.586C262.321 394.258 262.654 393.924 262.984 393.585C263.321 393.258 263.654 392.924 263.984 392.586C264.321 392.258 264.654 391.924 264.984 391.585ZM317.192 374.519C319.335 373.098 321.733 371.737 324.328 370.39C326.98 369.211 329.733 367.931 332.536 366.628L332.537 366.628C335.155 365.41 337.816 364.173 340.478 362.98C351.118 358.23 361.758 352.91 370.688 345.69C371.914 344.65 373.077 343.569 374.17 342.441C374.51 342.112 374.843 341.779 375.17 341.441C375.51 341.112 375.843 340.779 376.171 340.441C376.51 340.112 376.843 339.779 377.17 339.442C377.51 339.112 377.843 338.779 378.171 338.441C378.51 338.112 378.843 337.779 379.17 337.441C379.51 337.112 379.843 336.779 380.17 336.441C380.51 336.112 380.843 335.779 381.17 335.442C381.51 335.112 381.843 334.779 382.17 334.441C387.228 329.536 390.933 323.738 392.727 316.584C392.686 317.472 392.665 318.37 392.665 319.28V322.32H417.745V321.32H418.745V320.32H419.745V319.32H420.745V318.32H421.745V317.32H422.745V316.32H423.745V315.32H424.745V314.32H425.745V313.32H426.745V311.23C426.745 307.087 427.596 303.346 429.247 300.123C433.63 297.774 439.204 296.48 445.865 296.48C463.915 296.48 472.655 304.27 472.655 316.05C472.655 318.711 472.298 321.091 471.564 323.182C468.059 324.58 463.593 325.29 458.095 325.29H442.135V326.29H441.135V327.29H440.135V328.29H439.135V329.29H438.135V330.29H437.135V331.29H436.135V332.29H435.135V333.29H434.135V334.29H433.135V353.86H449.095C465.625 353.86 474.365 357.28 474.365 370.96C474.365 374.006 473.742 376.798 472.554 379.287C467.754 381.835 461.505 383.24 454.105 383.24C433.965 383.24 425.035 375.83 425.035 358.73V356.26H399.575V357.26H398.575V358.26H397.575V359.26H396.575V360.26H395.575V361.26H394.575V362.26H393.575V363.26H392.575V364.26H391.575V365.26H390.575V369.06C390.575 372.969 390.833 376.618 391.36 380.01H315.468C315.699 378.024 316.289 376.207 317.192 374.519ZM195.584 340.49C195.584 368.23 204.704 383.05 225.794 383.05C231.614 383.05 236.578 381.882 240.699 379.546C244.921 372.468 247.004 362.386 247.004 349.3V340.18C247.004 312.25 237.504 296.67 216.794 296.67C210.979 296.67 206.075 297.854 202.02 300.155C197.628 307.499 195.584 317.955 195.584 331.18V340.49ZM64.9827 358.271C64.643 358.6 64.3096 358.933 63.9827 359.271C63.643 359.6 63.3097 359.933 62.9828 360.271C62.6431 360.6 62.3097 360.933 61.9828 361.271C61.6431 361.6 61.3097 361.933 60.9827 362.271C60.643 362.6 60.3096 362.933 59.9827 363.271C59.643 363.6 59.3097 363.933 58.9828 364.271C58.643 364.6 58.3097 364.933 57.9828 365.271C57.6431 365.6 57.3097 365.933 56.9828 366.271C49.8007 373.233 45.4492 381.973 45.4492 393.76V412H152.799V411H153.799V410H154.799V409H155.799V408H156.799V407H157.799V406H158.799V405H159.799V404H160.799V403H161.799V380.01H83.5192C83.7501 378.024 84.3403 376.207 85.2433 374.519C87.3864 373.098 89.7845 371.737 92.3792 370.39C95.0311 369.211 97.7845 367.931 100.587 366.628L100.587 366.628L100.587 366.628L100.588 366.628L100.59 366.627C103.208 365.41 105.869 364.173 108.529 362.98C119.169 358.23 129.809 352.91 138.739 345.69C139.966 344.65 141.129 343.569 142.222 342.441C142.561 342.112 142.895 341.779 143.222 341.441C143.561 341.112 143.895 340.779 144.222 340.441C144.561 340.112 144.895 339.779 145.222 339.441C145.561 339.112 145.895 338.779 146.222 338.441C146.561 338.112 146.895 337.779 147.222 337.441C147.561 337.112 147.895 336.779 148.222 336.441C148.561 336.112 148.895 335.779 149.222 335.441C149.561 335.112 149.895 334.779 150.222 334.441C157.51 327.373 161.989 318.453 161.989 306.29C161.989 290.33 154.009 277.79 138.809 270.57C131.209 266.96 121.709 265.25 110.499 265.25C91.1386 265.25 76.5624 270.15 67.3736 279.695C67.0335 280.022 66.7001 280.356 66.3736 280.695C66.0335 281.022 65.7001 281.356 65.3736 281.695C65.0335 282.022 64.7001 282.356 64.3736 282.695C64.0335 283.022 63.7001 283.356 63.3736 283.695C63.0335 284.022 62.7001 284.356 62.3736 284.695C62.0335 285.022 61.7001 285.356 61.3736 285.695C61.0335 286.022 60.7001 286.356 60.3736 286.695C60.0335 287.022 59.7001 287.356 59.3736 287.695C51.228 295.537 46.9692 306.751 46.9692 321.18V326.69H72.4292V325.69H73.4292V324.69H74.4292V323.69H75.4292V322.69H76.4292V321.69H77.4292V320.69H78.4292V319.69H79.4292V318.69H80.4292V317.69H81.4292V313.32C81.4292 307.824 82.4497 303.114 84.4591 299.251C88.8505 296.926 94.4182 295.72 101.119 295.72C118.219 295.72 127.149 302.56 127.149 316.62C127.149 319.611 126.433 322.282 125.108 324.704C122.957 326.115 120.541 327.439 117.909 328.71C112.399 331.56 106.889 334.03 100.429 336.88C89.4092 341.63 78.1992 346.95 69.2692 354.36C67.7408 355.602 66.3084 356.902 64.9827 358.271Z" fill="#00C777"/>
<path d="M55.4492 402H162.799V379.01H84.5192C85.4692 370.84 92.4992 365.52 102.379 360.39C107.509 358.11 113.019 355.45 118.529 352.98C129.169 348.23 139.809 342.91 148.739 335.69C157.479 328.28 162.989 318.78 162.989 305.29C162.989 289.33 155.009 276.79 139.809 269.57C132.209 265.96 122.709 264.25 111.499 264.25C76.3492 264.25 56.9692 280.4 56.9692 311.18V316.69H82.4292V312.32C82.4292 295.22 92.3092 285.72 111.119 285.72C128.219 285.72 137.149 292.56 137.149 306.62C137.149 316.12 129.929 322.39 118.909 327.71C113.399 330.56 107.889 333.03 101.429 335.88C90.4092 340.63 79.1992 345.95 70.2692 353.36C61.1492 360.77 55.4492 370.27 55.4492 383.76V402Z" fill="#00FF99"/>
<path d="M226.794 404.85C249.784 404.85 266.884 395.16 276.384 376.16C280.944 366.47 283.414 354.69 283.414 340.44V329.04C283.414 300.54 273.724 281.35 256.624 271.47C247.884 266.34 238.194 264.06 226.794 264.06C190.884 264.06 170.364 286.67 170.364 329.23V340.44C170.364 383.38 190.314 404.85 226.794 404.85ZM226.794 382.05C205.704 382.05 196.584 367.23 196.584 339.49V330.18C196.584 302.25 205.704 286.67 226.794 286.67C247.504 286.67 257.004 302.25 257.004 330.18V339.3C257.004 367.8 247.124 382.05 226.794 382.05Z" fill="#00FF99"/>
<path d="M287.398 402H394.748V379.01H316.468C317.418 370.84 324.448 365.52 334.328 360.39C339.458 358.11 344.968 355.45 350.478 352.98C361.118 348.23 371.758 342.91 380.688 335.69C389.428 328.28 394.938 318.78 394.938 305.29C394.938 289.33 386.958 276.79 371.758 269.57C364.158 265.96 354.658 264.25 343.448 264.25C308.298 264.25 288.918 280.4 288.918 311.18V316.69H314.378V312.32C314.378 295.22 324.258 285.72 343.068 285.72C360.168 285.72 369.098 292.56 369.098 306.62C369.098 316.12 361.878 322.39 350.858 327.71C345.348 330.56 339.838 333.03 333.378 335.88C322.358 340.63 311.148 345.95 302.218 353.36C293.098 360.77 287.398 370.27 287.398 383.76V402Z" fill="#00FF99"/>
<path d="M455.485 404.66C479.235 404.66 495.575 397.63 504.505 385.09C508.875 379.01 510.965 371.98 510.965 363.81C510.965 347.09 503.365 337.21 490.445 332.65C502.605 327.52 508.685 318.02 508.685 303.2C508.685 280.02 490.065 264.25 456.625 264.25C421.665 264.25 402.665 281.73 402.665 309.28V312.32H427.745V310.23C427.745 295.98 437.815 286.48 455.865 286.48C473.915 286.48 482.655 294.27 482.655 306.05C482.655 318.02 475.435 324.29 459.095 324.29H443.135V343.86H459.095C475.625 343.86 484.365 347.28 484.365 360.96C484.365 373.88 473.155 382.24 455.105 382.24C434.965 382.24 426.035 374.83 426.035 357.73V355.26H400.575V359.06C400.575 390.03 416.725 404.66 455.485 404.66Z" fill="#00FF99"/>
<path fill-rule="evenodd" clip-rule="evenodd" d="M379.946 237.984C384.359 233.905 386.761 227.603 386.761 218.72V92.96C386.761 76.64 377.401 68.24 361.321 68.24C352.742 68.24 345.852 70.7039 341.339 75.5555C340.994 75.8768 340.66 76.2101 340.339 76.5556C339.994 76.8768 339.66 77.2101 339.339 77.5555C338.994 77.8768 338.66 78.2101 338.339 78.5556C337.994 78.8768 337.66 79.2102 337.339 79.5556C336.994 79.8768 336.66 80.2101 336.339 80.5555C335.994 80.8767 335.66 81.2101 335.339 81.5556C334.994 81.8768 334.66 82.2101 334.339 82.5555C333.994 82.8768 333.66 83.2102 333.339 83.5556C328.89 87.6951 326.401 93.8495 326.401 101.96V227.72C326.401 245.48 336.721 252.92 352.081 252.92C360.748 252.92 367.532 250.759 371.946 245.984C372.292 245.665 372.625 245.332 372.946 244.984C373.292 244.665 373.625 244.332 373.946 243.984C374.292 243.665 374.625 243.332 374.946 242.984C375.292 242.665 375.625 242.332 375.946 241.984C376.292 241.665 376.625 241.332 376.946 240.984C377.292 240.665 377.625 240.332 377.946 239.984C378.292 239.665 378.625 239.331 378.946 238.984C379.292 238.665 379.625 238.331 379.946 237.984ZM359.504 226.258C359.515 225.953 359.521 225.64 359.521 225.32V103.16C359.521 97.3014 357.697 94.1791 353.889 93.4748C353.883 93.6989 353.881 93.9273 353.881 94.16V216.32C353.881 222.242 355.372 225.555 359.504 226.258ZM51.1403 70.92H49.98L50.1403 71.92H48.98L49.1403 72.92H47.98L48.1403 73.92H46.98L47.1403 74.92H45.98L46.1403 75.92H44.98L45.1403 76.92H43.98L44.1403 77.92H42.98L43.1403 78.92H41.98L59.02 185.24V251H77.5V250H78.5V249H79.5V248H80.5V247H81.5V246H82.5V245H83.5V244H84.5V243H85.5V242H86.5V174.56L101.412 84.2604V251H138.612V250H139.612V249H140.612V248H141.612V247H142.612V246H143.612V245H144.612V244H145.612V243H145.897L145.116 251H162.396L162.475 250H163.396L163.475 249H164.396L164.475 248H165.396L165.475 247H166.396L166.475 246H167.396L167.475 245H168.396L168.475 244H169.396L169.475 243H170.396L170.475 242H171.396L172.368 229.64H178.956L180.636 251H198.396L198.292 250H199.396L199.292 249H200.396L200.292 248H201.396L201.292 247H202.396L202.292 246H203.396L203.292 245H204.396L204.292 244H205.24V251H222.76V250H223.76V249H224.76V248H225.76V247H226.76V246H227.76V245H228.76V244H229.76V243H230.76V242H231.76V177.813C235.312 178.914 236.44 181.938 236.44 187.64V240.68C236.44 245.24 237.16 249.32 238.84 251H257.56C257.296 250.678 257.05 250.345 256.822 250H258.56C258.296 249.678 258.05 249.345 257.822 249H259.56C259.296 248.678 259.05 248.345 258.822 248H260.56C260.296 247.678 260.05 247.345 259.822 247H261.56C261.296 246.678 261.05 246.345 260.822 246H262.56C262.296 245.678 262.05 245.345 261.822 245H263.56C263.296 244.678 263.05 244.345 262.822 244H264.56C264.296 243.678 264.05 243.345 263.822 243H265.56C265.296 242.678 265.05 242.345 264.822 242H265.709V251H291.389C300.605 251 307.149 248.761 311.179 244.362C311.528 244.042 311.861 243.709 312.179 243.362C312.528 243.042 312.861 242.709 313.179 242.362C313.528 242.042 313.861 241.709 314.179 241.362C314.528 241.042 314.861 240.709 315.179 240.362C315.528 240.042 315.861 239.709 316.179 239.362C316.528 239.042 316.861 238.709 317.179 238.362C317.528 238.042 317.861 237.709 318.179 237.362C318.528 237.042 318.861 236.709 319.179 236.362C323.171 232.703 325.109 227.283 325.109 220.16V169.76C325.109 160.98 321.995 156.204 315.981 153.291C316.137 153.134 316.289 152.974 316.437 152.81C316.787 152.494 317.12 152.161 317.437 151.81C317.787 151.494 318.12 151.161 318.437 150.81C322.085 147.52 323.909 142.316 323.909 135.44V91.52C323.909 77.36 317.669 69.92 299.669 69.92H274.709V70.92H273.709V71.92H272.709V72.92H271.709V73.92H270.709V74.92H269.709V75.92H268.709V76.92H267.709V77.92H266.709V78.92H265.709V240.826C264.146 238.378 263.44 235.35 263.44 231.44V177.2C263.44 167.493 260.679 162.032 254.759 159.62C255.081 159.327 255.388 159.018 255.679 158.693C256.031 158.378 256.364 158.045 256.679 157.693C257.031 157.378 257.364 157.045 257.679 156.693C261.304 153.448 262.96 148.239 262.96 140.96V92C262.96 76.16 256.48 69.92 237.76 69.92H214.24V70.92H213.24V71.92H212.24V72.92H211.24V73.92H210.24V74.92H209.24V75.92H208.24V76.92H207.24V77.92H206.24V78.92H205.24V221.386L189.396 69.92H170.916L170.819 70.92H169.916L169.819 71.92H168.916L168.819 72.92H167.916L167.819 73.92H166.916L166.819 74.92H165.916L165.819 75.92H164.916L164.819 76.92H163.916L163.819 77.92H162.916L162.819 78.92H161.916L147.612 225.438V224.24H128.172V172.28H136.932V171.28H137.932V170.28H138.932V169.28H139.932V168.28H140.932V167.28H141.932V166.28H142.932V165.28H143.932V164.28H144.932V163.28H145.932V145.52H128.172V96.44H138.132V95.44H139.132V94.44H140.132V93.44H141.132V92.44H142.132V91.44H143.132V90.44H144.132V89.44H145.132V88.44H146.132V87.44H147.132V69.92H110.412V70.92H109.412V71.92H108.412V72.92H107.412V73.92H106.412V74.92H105.412V75.92H104.412V76.92H103.412V77.92H102.459L103.78 69.92H86.02L85.892 70.92H85.02L84.892 71.92H84.02L83.892 72.92H83.02L82.892 73.92H82.02L81.892 74.92H81.02L80.892 75.92H80.02L79.892 76.92H79.02L78.892 77.92H78.02L77.892 78.92H77.02L73.5758 105.836L68.98 69.92H50.98L51.1403 70.92ZM102.412 78.92V78.2048L102.294 78.92H102.412ZM175.587 186.251L174.276 204.32H177.035L175.587 186.251ZM236.676 151.28C236.638 151.28 236.599 151.28 236.56 151.28H231.76V94.7327C235.474 95.6632 236.68 98.1385 236.68 103.16V150.92C236.68 151.041 236.679 151.161 236.676 151.28ZM297.132 144.56C297.143 144.286 297.149 144.006 297.149 143.72V103.16C297.149 98.3553 295.676 95.759 292.469 94.6693V144.56H297.132ZM297.387 226.16C297.388 226.041 297.389 225.921 297.389 225.8V179.48C297.389 174.361 295.996 171.749 292.469 170.795V226.16H297.387ZM442.524 237.984C446.937 233.905 449.339 227.603 449.339 218.72V92.96C449.339 76.64 439.979 68.24 423.899 68.24C415.32 68.24 408.431 70.7039 403.917 75.5555C403.572 75.8768 403.238 76.2101 402.917 76.5556C402.572 76.8768 402.238 77.2101 401.917 77.5555C401.572 77.8768 401.238 78.2101 400.917 78.5556C400.572 78.8768 400.238 79.2102 399.917 79.5556C399.572 79.8768 399.238 80.2101 398.917 80.5555C398.572 80.8767 398.238 81.2101 397.917 81.5556C397.572 81.8768 397.238 82.2101 396.917 82.5555C396.572 82.8768 396.238 83.2102 395.917 83.5556C391.468 87.6951 388.979 93.8495 388.979 101.96V227.72C388.979 245.48 399.299 252.92 414.659 252.92C423.326 252.92 430.111 250.759 434.524 245.984C434.87 245.665 435.203 245.332 435.524 244.984C435.87 244.665 436.203 244.332 436.524 243.984C436.87 243.665 437.203 243.332 437.524 242.984C437.87 242.665 438.203 242.332 438.524 241.984C438.87 241.665 439.203 241.332 439.524 240.984C439.87 240.665 440.203 240.332 440.524 239.984C440.87 239.665 441.203 239.331 441.524 238.984C441.87 238.665 442.203 238.331 442.524 237.984ZM422.099 192.958V225.32C422.099 225.64 422.093 225.953 422.082 226.258C417.95 225.555 416.459 222.242 416.459 216.32V94.16C416.459 93.9273 416.462 93.6989 416.467 93.4748C416.562 93.4923 416.655 93.5113 416.747 93.5317L422.099 192.958ZM461.271 70.92H460.271V71.92H459.271V72.92H458.271V73.92H457.271V74.92H456.271V75.92H455.271V76.92H454.271V77.92H453.271V78.92H452.271V251H469.551V250H470.551V249H471.551V248H472.551V247H473.551V246H474.551V245H475.551V244H476.551V243H477.551V242H478.551V191.84L488.991 251H506.751L506.557 250H507.751L507.557 249H508.751L508.557 248H509.751L509.557 247H510.751L510.557 246H511.751L511.557 245H512.751L512.557 244H513.751L513.557 243H514.751L514.557 242H515.751L495.831 139.28L514.551 69.92H497.751L497.481 70.92H496.751L496.481 71.92H495.751L495.481 72.92H494.751L494.481 73.92H493.751L493.481 74.92H492.751L492.481 75.92H491.751L491.481 76.92H490.751L490.481 77.92H489.751L489.481 78.92H488.751L478.551 116.675V69.92H461.271V70.92Z" fill="#9E2E7C"/>
<path d="M69.02 241H87.5V173.56L104.78 68.92H87.02L80.54 119.56L78.38 152.68L76.46 119.56L69.98 68.92H51.98L69.02 175.24V241Z" fill="#E646B6"/>
<path d="M148.612 241V223.24H129.172V162.28H146.932V144.52H129.172V86.44H148.132V68.92H111.412V241H148.612Z" fill="#E646B6"/>
<path d="M188.956 219.64L190.636 241H208.396L190.396 68.92H171.916L155.116 241H172.396L174.076 219.64H188.956ZM175.276 203.32L179.836 140.44L181.276 101.56L182.716 140.44L187.756 203.32H175.276Z" fill="#E646B6"/>
<path d="M232.76 167.32H237.8C244.52 167.32 246.44 170.2 246.44 177.64V230.68C246.44 235.24 247.16 239.32 248.84 241H267.56C265.4 238.36 264.44 235 264.44 230.44V176.2C264.44 165.88 261.32 160.36 254.6 158.2C261.08 155.56 263.96 149.56 263.96 139.96V91C263.96 75.16 257.48 68.92 238.76 68.92H215.24V241H232.76V167.32ZM232.76 84.28H237.08C244.52 84.28 246.68 86.44 246.68 93.16V140.92C246.68 146.92 243.56 150.28 237.56 150.28H232.76V84.28Z" fill="#E646B6"/>
<path d="M275.709 241H301.389C318.189 241 326.109 233.56 326.109 219.16V168.76C326.109 159.64 322.749 154.84 316.269 151.96C322.029 149.08 324.909 143.08 324.909 134.44V90.52C324.909 76.36 318.669 68.92 300.669 68.92H275.709V241ZM293.469 84.04H297.789C304.269 84.04 307.149 86.44 307.149 93.16V133.72C307.149 140.2 304.269 143.56 298.509 143.56H293.469V84.04ZM293.469 160.36H298.509C304.989 160.36 307.389 162.76 307.389 169.48V215.8C307.389 222.76 305.229 225.16 298.509 225.16H293.469V160.36Z" fill="#E646B6"/>
<path d="M362.081 242.92C378.161 242.92 387.761 235.48 387.761 217.72V91.96C387.761 75.64 378.401 67.24 362.321 67.24C346.481 67.24 336.401 75.64 336.401 91.96V217.72C336.401 235.48 346.721 242.92 362.081 242.92ZM362.321 225.4C356.801 225.4 354.881 222.04 354.881 215.32V93.16C354.881 86.44 357.281 83.32 362.081 83.32C367.121 83.32 369.521 86.44 369.521 93.16V215.32C369.521 222.04 367.121 225.4 362.321 225.4Z" fill="#E646B6"/>
<path d="M424.659 242.92C440.739 242.92 450.339 235.48 450.339 217.72V91.96C450.339 75.64 440.979 67.24 424.899 67.24C409.059 67.24 398.979 75.64 398.979 91.96V217.72C398.979 235.48 409.299 242.92 424.659 242.92ZM424.899 225.4C419.379 225.4 417.459 222.04 417.459 215.32V93.16C417.459 86.44 419.859 83.32 424.659 83.32C429.699 83.32 432.099 86.44 432.099 93.16V215.32C432.099 222.04 429.699 225.4 424.899 225.4Z" fill="#E646B6"/>
<path d="M484.351 153.64L484.591 159.4L498.991 241H516.751L496.831 138.28L515.551 68.92H498.751L482.671 128.44L476.431 158.2L479.551 126.28V68.92H462.271V241H479.551V172.12L484.351 153.64Z" fill="#E646B6"/>
<path fill-rule="evenodd" clip-rule="evenodd" d="M236.596 16.864C232.18 12.4 228.052 11.44 223.396 11.44C217.146 11.44 212.578 13.6521 209.559 16.952C209.209 17.2725 208.876 17.6063 208.559 17.952C208.209 18.2725 207.876 18.6063 207.559 18.952C203.798 22.3925 202.012 27.3575 202.012 32.248C202.012 41.032 207.052 49.912 220.348 49.912C225.85 49.912 230.902 48.2511 233.595 45.1349C233.956 44.8203 234.291 44.4869 234.595 44.1349C234.956 43.8203 235.291 43.4869 235.595 43.1349C236.526 42.3252 237.275 41.3906 237.796 40.336V25.408H221.38V26.408H220.38V27.408H219.38V28.408H218.38V35.848H226.876V38.4848C225.619 38.7972 224.36 38.896 223.396 38.896C216.628 38.896 214.372 33.568 214.372 29.248C214.372 26.9089 214.822 24.9888 215.647 23.4857C216.98 22.7666 218.583 22.408 220.396 22.408C222.652 22.408 225.628 23.032 228.076 25.336L233.596 19.864L233.592 19.8596L234.596 18.864L234.592 18.8596L235.596 17.864C235.595 17.8625 235.594 17.8611 235.592 17.8596L236.596 16.864ZM252.622 46V12.4H243.166V13.4H242.166V14.4H241.166V15.4H240.166V49H249.622V48H250.622V47H251.622V46H252.622ZM276.628 28.8351C276.354 28.8855 276.062 28.912 275.751 28.912H268.935V23.56H272.751C275.343 23.56 276.735 25.576 276.735 27.784C276.735 28.1444 276.7 28.4972 276.628 28.8351ZM267.935 46H268.935V39.928H272.751C277.632 39.8758 281.192 38.2769 283.426 35.7253C283.784 35.4112 284.118 35.0773 284.426 34.7253C284.784 34.4112 285.118 34.0773 285.426 33.7253C287.966 31.5 289.239 28.2868 289.239 24.64C289.239 18.064 284.775 12.4 275.751 12.4H259.431V13.4H258.431V14.4H257.431V15.4H256.431V49H265.935V48H266.935V47H267.935V46ZM324.471 12.448H315.063V13.448H314.063V14.448H313.063V15.448H312.063V25.216H302.967V12.448H293.463V13.448H292.463V14.448H291.463V15.448H290.463V49.048H299.967V48.048H300.967V47.048H301.967V46.048H302.967V36.328H312.063V49.048H321.471V48.048H322.471V47.048H323.471V46.048H324.471V12.448ZM327.595 12.4H338.299L344.714 23.018L349.507 15.4H349.878L350.507 14.4H350.878L351.507 13.4H351.878L352.507 12.4H363.211V12.832L349.867 32.608V46H348.867V47H347.867V48H346.867V49H337.363V35.608L324.595 15.784V15.4H325.991L325.595 14.784V14.4H326.991L326.595 13.784V13.4H327.991L327.595 12.784V12.4Z" fill="#888888"/>
<path d="M237.596 15.864C233.18 11.4 229.052 10.44 224.396 10.44C211.772 10.44 206.012 19.464 206.012 28.248C206.012 37.032 211.052 45.912 224.348 45.912C230.828 45.912 236.684 43.608 238.796 39.336V24.408H222.38V31.848H230.876V36.168C228.956 37.56 226.172 37.896 224.396 37.896C217.628 37.896 215.372 32.568 215.372 28.248C215.372 21.672 218.924 18.408 224.396 18.408C226.652 18.408 229.628 19.032 232.076 21.336L237.596 15.864Z" fill="white"/>
<path d="M253.622 45V11.4H244.166V45H253.622Z" fill="white"/>
<path d="M269.935 19.56H276.751C279.343 19.56 280.735 21.576 280.735 23.784C280.735 25.992 279.391 27.912 276.751 27.912H269.935V19.56ZM276.751 35.928C285.727 35.832 290.239 30.504 290.239 23.64C290.239 17.064 285.775 11.4 276.751 11.4H260.431V45H269.935V35.928H276.751Z" fill="white"/>
<path d="M325.471 45.048V11.448H316.063V24.216H303.967V11.448H294.463V45.048H303.967V32.328H316.063V45.048H325.471Z" fill="white"/>
<path d="M339.299 11.4H328.595V11.784L341.363 31.608V45H350.867V31.608L364.211 11.832V11.4H353.507L346.259 22.92L339.299 11.4Z" fill="white"/>
</svg>
