<svg width="33" height="33" viewBox="0 0 33 33" fill="none" xmlns="http://www.w3.org/2000/svg">
<path fill-rule="evenodd" clip-rule="evenodd" d="M19.0442 5.33334C18.9417 5.33334 18.8392 5.37889 18.7367 5.47L8.6723 16.6413C8.59031 16.74 8.54932 16.8577 8.54932 16.9943C8.54932 17.131 8.59031 17.2486 8.6723 17.3473L18.7367 28.5186C18.8187 28.6173 18.9229 28.6667 19.0493 28.6667C19.1757 28.6667 19.2799 28.6173 19.3619 28.5186L22.4263 25.1137C22.5083 25.0226 22.5493 24.9068 22.5493 24.7664C22.5493 24.626 22.5083 24.5102 22.4263 24.4191L15.744 16.9943L22.4263 9.56956C22.5083 9.47845 22.5493 9.36268 22.5493 9.22223C22.5493 9.08178 22.5083 8.96601 22.4263 8.87491L19.3619 5.47C19.2594 5.37889 19.1535 5.33334 19.0442 5.33334Z" fill="white"/>
</svg>
