<svg width="33" height="32" viewBox="0 0 33 32" fill="none" xmlns="http://www.w3.org/2000/svg">
<path fill-rule="evenodd" clip-rule="evenodd" d="M19.3284 4.69991C19.2259 4.69991 19.1234 4.74546 19.0209 4.83656L8.95648 16.0079C8.87449 16.1066 8.8335 16.2242 8.8335 16.3609C8.8335 16.4975 8.87449 16.6152 8.95648 16.7139L19.0209 27.8852C19.1029 27.9839 19.2071 28.0332 19.3335 28.0332C19.4599 28.0332 19.5641 27.9839 19.6461 27.8852L22.7105 24.4803C22.7925 24.3892 22.8335 24.2734 22.8335 24.133C22.8335 23.9925 22.7925 23.8767 22.7105 23.7856L16.0282 16.3609L22.7105 8.93612C22.7925 8.84502 22.8335 8.72924 22.8335 8.58879C22.8335 8.44835 22.7925 8.33257 22.7105 8.24147L19.6461 4.83656C19.5436 4.74546 19.4377 4.69991 19.3284 4.69991Z" fill="white"/>
</svg>
