<svg width="33" height="33" viewBox="0 0 33 33" fill="none" xmlns="http://www.w3.org/2000/svg">
<path fill-rule="evenodd" clip-rule="evenodd" d="M31 25.0986C31 27.6911 29.7484 29 27.2923 29H5.70765C3.23982 29 2 27.6911 2 25.0986V11.9219C2 9.32931 3.23982 8.03304 5.70765 8.03304H9.00204C9.92305 8.03304 10.2182 7.81909 10.7496 7.20241L11.6942 6.06974C12.2846 5.37756 12.8868 5 14.103 5H18.8143C20.0305 5 20.6327 5.37756 21.2231 6.06974L22.1678 7.20241C22.6991 7.83167 22.9825 8.03304 23.9153 8.03304H27.2923C29.7484 8.03304 31 9.32931 31 11.9219V25.0986ZM16.5 24C19.5376 24 22 21.5376 22 18.5C22 15.4624 19.5376 13 16.5 13C13.4624 13 11 15.4624 11 18.5C11 21.5376 13.4624 24 16.5 24Z" fill="white"/>
</svg>
