<svg width="33" height="33" viewBox="0 0 33 33" fill="none" xmlns="http://www.w3.org/2000/svg">
<path d="M5.70765 29H27.2923C29.7484 29 31 27.6911 31 25.0986V11.9219C31 9.32931 29.7484 8.03304 27.2923 8.03304H23.9153C22.9825 8.03304 22.6991 7.83167 22.1678 7.20241L21.2231 6.06974C20.6327 5.37756 20.0305 5 18.8143 5H14.103C12.8868 5 12.2846 5.37756 11.6942 6.06974L10.7496 7.20241C10.2182 7.81909 9.92305 8.03304 9.00204 8.03304H5.70765C3.23982 8.03304 2 9.32931 2 11.9219V25.0986C2 27.6911 3.23982 29 5.70765 29ZM16.5 25.2874C12.9222 25.2874 10.0529 22.2417 10.0529 18.4033C10.0529 14.5773 12.9222 11.5317 16.5 11.5317C20.0778 11.5317 22.9353 14.5773 22.9353 18.4033C22.9353 22.2417 20.066 25.2874 16.5 25.2874ZM23.7264 13.7719C23.7264 12.9161 24.4349 12.161 25.2614 12.161C26.0761 12.161 26.7728 12.9161 26.7728 13.7719C26.7728 14.6654 26.0761 15.3828 25.2614 15.3954C24.4349 15.3954 23.7264 14.678 23.7264 13.7719ZM16.5 23.3744C19.0741 23.3744 21.1523 21.172 21.1523 18.4033C21.1523 15.6471 19.0741 13.4321 16.5 13.4321C13.9259 13.4321 11.8359 15.6471 11.8359 18.4033C11.8359 21.172 13.9377 23.3744 16.5 23.3744Z" fill="white"/>
</svg>
