<svg width="33" height="33" viewBox="0 0 33 33" fill="none" xmlns="http://www.w3.org/2000/svg">
<path fill-rule="evenodd" clip-rule="evenodd" d="M24.2106 28.6667C24.3492 28.6667 24.4791 28.619 24.6004 28.5238L28.5239 24.6002C28.6192 24.479 28.6668 24.3491 28.6668 24.2105C28.6668 24.0632 28.6192 23.929 28.5239 23.8077L21.7162 17L28.5239 10.1923C28.6192 10.071 28.6668 9.93678 28.6668 9.78954C28.6668 9.65096 28.6192 9.52104 28.5239 9.39979L24.6004 5.47625C24.4791 5.38098 24.3492 5.33334 24.2106 5.33334C24.0634 5.33334 23.9291 5.38098 23.8079 5.47625L17.0002 12.284L10.1924 5.47625C10.0712 5.38098 9.93693 5.33334 9.78969 5.33334C9.65111 5.33334 9.5212 5.38098 9.39994 5.47625L5.47641 9.39979C5.38113 9.52104 5.3335 9.65096 5.3335 9.78954C5.3335 9.93678 5.38113 10.071 5.47641 10.1923L12.2841 17L5.47641 23.8077C5.38113 23.929 5.3335 24.0632 5.3335 24.2105C5.3335 24.3491 5.38113 24.479 5.47641 24.6002L9.39994 28.5238C9.5212 28.619 9.65111 28.6667 9.78969 28.6667C9.93693 28.6667 10.0712 28.619 10.1924 28.5238L17.0002 21.716L23.8079 28.5238C23.9291 28.619 24.0634 28.6667 24.2106 28.6667Z" fill="#A6A6A6"/>
</svg>
