<svg width="33" height="33" viewBox="0 0 33 33" fill="none" xmlns="http://www.w3.org/2000/svg">
<path fill-rule="evenodd" clip-rule="evenodd" d="M23.9264 28.6667C24.065 28.6667 24.1949 28.619 24.3162 28.5238L28.2397 24.6002C28.335 24.479 28.3826 24.3491 28.3826 24.2105C28.3826 24.0632 28.335 23.929 28.2397 23.8077L21.432 17L28.2397 10.1923C28.335 10.071 28.3826 9.93678 28.3826 9.78954C28.3826 9.65096 28.335 9.52104 28.2397 9.39979L24.3162 5.47625C24.1949 5.38098 24.065 5.33334 23.9264 5.33334C23.7792 5.33334 23.645 5.38098 23.5237 5.47625L16.716 12.284L9.90826 5.47625C9.78701 5.38098 9.65276 5.33334 9.50551 5.33334C9.36693 5.33334 9.23702 5.38098 9.11576 5.47625L5.19223 9.39979C5.09695 9.52104 5.04932 9.65096 5.04932 9.78954C5.04932 9.93678 5.09695 10.071 5.19223 10.1923L11.9999 17L5.19223 23.8077C5.09695 23.929 5.04932 24.0632 5.04932 24.2105C5.04932 24.3491 5.09695 24.479 5.19223 24.6002L9.11576 28.5238C9.23702 28.619 9.36693 28.6667 9.50551 28.6667C9.65276 28.6667 9.78701 28.619 9.90826 28.5238L16.716 21.716L23.5237 28.5238C23.645 28.619 23.7792 28.6667 23.9264 28.6667Z" fill="white"/>
</svg>
