<svg width="32" height="32" viewBox="0 0 32 32" fill="none" xmlns="http://www.w3.org/2000/svg">
<path d="M5.69519 25C7.0239 25 7.93557 24.5033 8.75026 23.4702L10.5057 21.2947C10.7579 20.9868 11.0488 20.8377 11.3398 20.8377H20.6602C20.9512 20.8377 21.2421 20.9868 21.4943 21.2947L23.2497 23.4702C24.0644 24.5033 24.9761 25 26.3048 25C28.5258 25 30 23.4901 30 21.1656C30 20.1722 29.7769 19.0298 29.3987 17.7483C28.8071 15.7119 27.7693 12.9404 26.78 10.7947C25.946 9.00662 25.5192 8.19205 23.4631 7.71523C21.6398 7.28808 19.1084 7 16.0048 7C12.9013 7 10.3602 7.28808 8.53689 7.71523C6.48078 8.19205 6.05404 9.00662 5.21995 10.7947C4.23069 12.9404 3.19293 15.7119 2.60132 17.7483C2.22307 19.0298 2 20.1722 2 21.1656C2 23.4901 3.47419 25 5.69519 25ZM8.14894 14.0033C8.14894 13.5066 8.4496 13.1987 8.95393 13.1987H10.6997V11.4603C10.6997 10.9536 10.9809 10.6457 11.4659 10.6457C11.9411 10.6457 12.2321 10.9536 12.2321 11.4603V13.1987H13.8711C14.4143 13.1987 14.7343 13.5066 14.7343 14.0033C14.7343 14.5199 14.4143 14.8377 13.8711 14.8377H12.2321V16.5762C12.2321 17.0828 11.9411 17.4007 11.4659 17.4007C10.9809 17.4007 10.6997 17.0828 10.6997 16.5762V14.8377H8.95393C8.4496 14.8377 8.14894 14.5199 8.14894 14.0033ZM20.5438 12.4536C20.5438 11.6391 21.1548 11.0132 21.9307 11.0132C22.726 11.0132 23.3273 11.6391 23.3273 12.4536C23.3273 13.2583 22.726 13.8742 21.9307 13.8742C21.1548 13.8742 20.5438 13.2583 20.5438 12.4536ZM17.6827 15.394C17.6827 14.5795 18.3034 13.9536 19.0793 13.9536C19.8649 13.9536 20.4759 14.5795 20.4759 15.394C20.4759 16.1987 19.8649 16.8245 19.0793 16.8245C18.3034 16.8245 17.6827 16.1987 17.6827 15.394Z" fill="white"/>
</svg>
