<svg width="33" height="33" viewBox="0 0 33 33" fill="none" xmlns="http://www.w3.org/2000/svg">
<path d="M6.90031 12.2809V12.2666L6.89949 12.2523L6.71529 9.04124L9.2252 11.682L9.22511 11.6821L9.23311 11.6901L13.2689 15.7479C13.5985 16.0936 14.0235 16.24 14.4538 16.24C14.9355 16.24 15.3865 16.0829 15.7222 15.7737C16.0617 15.461 16.2524 15.0204 16.2524 14.5215C16.2524 14.0523 16.0931 13.6048 15.7516 13.2637L15.751 13.2631L11.698 9.22745L11.6981 9.22734L11.6893 9.21898L9.0469 6.71276L12.2742 6.89699L12.2885 6.8978H12.3027H13.3914C14.3368 6.8978 15.1243 6.21437 15.1243 5.20545C15.1243 4.2071 14.3609 3.5 13.3914 3.5H6.11175C5.34737 3.5 4.67858 3.72258 4.2008 4.19985C3.72295 4.6772 3.5 5.34556 3.5 6.10954V13.3816C3.5 14.3288 4.22528 15.1001 5.20672 15.1001C6.19183 15.1001 6.90031 14.3381 6.90031 13.3816V12.2809ZM26.0866 20.7191V20.7341L26.0875 20.7491L26.2808 23.9584L23.761 21.3173L23.7611 21.3173L23.7544 21.3105L19.7314 17.2524C19.3979 16.9026 18.9574 16.76 18.5331 16.76C17.5654 16.76 16.7345 17.4275 16.7345 18.4785C16.7345 18.9616 16.9161 19.4043 17.2484 19.7363L21.2883 23.772L21.2882 23.7721L21.2982 23.7816L23.9493 26.287L20.7258 26.103L20.7115 26.1022H20.6973H19.5955C18.6501 26.1022 17.8625 26.7856 17.8625 27.7945C17.8625 28.7963 18.6426 29.5 19.5955 29.5H26.8751C27.6394 29.5 28.3104 29.2776 28.791 28.8017C29.2724 28.3252 29.5 27.6567 29.5 26.8905V19.6184C29.5 18.6676 28.7712 17.8999 27.7802 17.8999C26.8118 17.8999 26.0866 18.6582 26.0866 19.6184V20.7191Z" fill="white" stroke="white"/>
</svg>
