<svg width="33" height="33" viewBox="0 0 33 33" fill="none" xmlns="http://www.w3.org/2000/svg">
<path d="M12.6457 7.31914V7.33453L12.6467 7.34989L12.8333 10.3785L10.3865 7.8717L10.3866 7.87163L10.3798 7.8649L6.4457 3.98592C6.12553 3.65754 5.69863 3.5 5.26988 3.5C4.79602 3.5 4.35318 3.65515 4.02341 3.95661C3.68994 4.26144 3.5 4.69145 3.5 5.17735C3.5 5.63321 3.67945 6.07671 4.00984 6.39932L7.96059 10.257L7.96047 10.2572L7.96997 10.266L10.5055 12.6166L7.41429 12.4437L7.40033 12.4429H7.38635H6.30888C5.38988 12.4429 4.60313 13.0946 4.60313 14.0827C4.60313 15.0443 5.36222 15.735 6.30888 15.735H13.4279C14.1767 15.735 14.8325 15.5184 15.3021 15.0557C15.7726 14.5921 15.9931 13.9435 15.9931 13.2059V6.26703C15.9931 5.33903 15.2684 4.6022 14.313 4.6022C13.3538 4.6022 12.6457 5.33023 12.6457 6.26703V7.31914ZM20.2773 25.5932V25.5778L20.2764 25.5623L20.09 22.5466L22.5365 25.0532L22.5364 25.0532L22.5439 25.0605L26.5674 29.0144C26.8855 29.3406 27.2986 29.5 27.7429 29.5C28.6977 29.5 29.5 28.8383 29.5 27.8226C29.5 27.3808 29.3427 26.9324 29.003 26.6007L24.9625 22.6553L24.9626 22.6551L24.9524 22.6458L22.4084 20.2957L25.5088 20.4687L25.5227 20.4694H25.5367H26.7553C27.6704 20.4694 28.461 19.8213 28.461 18.8422C28.461 17.8645 27.6982 17.1899 26.7553 17.1899H19.4951C18.7486 17.1899 18.0929 17.4021 17.6226 17.8613C17.1506 18.3222 16.93 18.9687 16.93 19.7064V26.7831C16.93 27.7235 17.6417 28.4479 18.6101 28.4479C19.5656 28.4479 20.2773 27.736 20.2773 26.7831V25.5932Z" fill="white" stroke="white"/>
</svg>
