<svg width="33" height="33" viewBox="0 0 33 33" fill="none" xmlns="http://www.w3.org/2000/svg">
<path fill-rule="evenodd" clip-rule="evenodd" d="M16.4901 29.9667C18.3043 29.9667 20.0339 29.6152 21.6789 28.9121C23.3238 28.2089 24.7409 27.2628 25.9302 26.0735C27.1194 24.8843 28.0656 23.4672 28.7687 21.8222C29.4718 20.1772 29.8234 18.4476 29.8234 16.6334C29.8234 14.8192 29.4718 13.0896 28.7687 11.4446C28.0656 9.79965 27.1194 8.38254 25.9302 7.19331C24.7409 6.00407 23.3238 5.05789 21.6789 4.35477C20.0339 3.65164 18.3043 3.30008 16.4901 3.30008C14.6758 3.30008 12.9441 3.65164 11.2948 4.35477C9.65413 5.05789 8.2392 6.00407 7.04997 7.19331C5.86073 8.38254 4.91455 9.79965 4.21143 11.4446C3.5083 13.0896 3.15674 14.8192 3.15674 16.6334C3.15674 18.4476 3.5083 20.1772 4.21143 21.8222C4.91455 23.4672 5.86073 24.8843 7.04997 26.0735C8.2392 27.2628 9.6563 28.2089 11.3013 28.9121C12.9462 29.6152 14.6758 29.9667 16.4901 29.9667ZM16.4901 12.7402C15.8738 12.7402 15.3486 12.5275 14.9146 12.1022C14.4805 11.6681 14.2635 11.143 14.2635 10.5266C14.2635 9.91032 14.4805 9.38515 14.9146 8.95112C15.3486 8.51709 15.8738 8.30008 16.4901 8.30008C17.1064 8.30008 17.6316 8.51709 18.0656 8.95112C18.4996 9.38515 18.7166 9.91032 18.7166 10.5266C18.7166 11.143 18.4996 11.666 18.0656 12.0957C17.6316 12.5253 17.1064 12.7402 16.4901 12.7402ZM18.1567 24.9667H14.8234V15.5266H18.1567V24.9667Z" fill="white"/>
</svg>
