<svg width="32" height="32" viewBox="0 0 32 32" fill="none" xmlns="http://www.w3.org/2000/svg">
<path fill-rule="evenodd" clip-rule="evenodd" d="M15.9998 29.3341C17.8141 29.3341 19.5437 28.9826 21.1886 28.2795C22.8336 27.5763 24.2507 26.6302 25.4399 25.4409C26.6292 24.2517 27.5754 22.8346 28.2785 21.1896C28.9816 19.5446 29.3332 17.815 29.3332 16.0008C29.3332 14.1866 28.9816 12.457 28.2785 10.812C27.5754 9.16705 26.6292 7.74995 25.4399 6.56071C24.2507 5.37147 22.8336 4.42529 21.1886 3.72217C19.5437 3.01904 17.8141 2.66748 15.9998 2.66748C14.1856 2.66748 12.4538 3.01904 10.8045 3.72217C9.1639 4.42529 7.74897 5.37147 6.55973 6.56071C5.3705 7.74995 4.42432 9.16705 3.72119 10.812C3.01807 12.457 2.6665 14.1866 2.6665 16.0008C2.6665 17.815 3.01807 19.5446 3.72119 21.1896C4.42432 22.8346 5.3705 24.2517 6.55973 25.4409C7.74897 26.6302 9.16607 27.5763 10.811 28.2795C12.456 28.9826 14.1856 29.3341 15.9998 29.3341ZM15.9998 12.1076C15.3835 12.1076 14.8583 11.8949 14.4243 11.4696C13.9903 11.0355 13.7733 10.5104 13.7733 9.89404C13.7733 9.27772 13.9903 8.75255 14.4243 8.31852C14.8583 7.88449 15.3835 7.66748 15.9998 7.66748C16.6162 7.66748 17.1413 7.88449 17.5754 8.31852C18.0094 8.75255 18.2264 9.27772 18.2264 9.89404C18.2264 10.5104 18.0094 11.0334 17.5754 11.4631C17.1413 11.8927 16.6162 12.1076 15.9998 12.1076ZM17.6665 24.3341H14.3332V14.894H17.6665V24.3341Z" fill="#A6A6A6"/>
</svg>
