<svg width="29" height="27" viewBox="0 0 29 27" fill="none" xmlns="http://www.w3.org/2000/svg">
<path d="M10.8848 22.8711L17.7754 26.7402C17.9805 26.8496 18.1992 26.9453 18.4043 27V4.6875L11.6504 0.558594C11.418 0.408203 11.1445 0.298828 10.8848 0.244141V22.8711ZM0.5625 25.0176C0.5625 26.0156 1.13672 26.5898 2.12109 26.5898C2.47656 26.5898 2.81836 26.4805 3.26953 26.2344L9.01172 23.1309V0.476562C8.76562 0.599609 8.49219 0.736328 8.24609 0.873047L1.76562 4.5918C0.945312 5.04297 0.5625 5.69922 0.5625 6.61523V25.0176ZM20.2637 26.959C20.4004 26.918 20.5508 26.8633 20.6738 26.7812L27.7969 22.7344C28.6172 22.2832 29 21.627 29 20.7109V2.29492C29 1.2832 28.4258 0.722656 27.4414 0.722656C27.0859 0.722656 26.7441 0.832031 26.293 1.07812L20.2637 4.42773V26.959Z" fill="#5C5C5C"/>
</svg>
