<svg width="45" height="46" viewBox="0 0 45 46" fill="none" xmlns="http://www.w3.org/2000/svg">
<path d="M22.4906 11.8813C23.3971 11.8813 24.1525 11.119 24.1525 10.2232V4.6581C24.1525 3.76234 23.3971 3 22.4906 3C21.6029 3 20.8475 3.76234 20.8475 4.6581V10.2232C20.8475 11.119 21.6029 11.8813 22.4906 11.8813ZM14.0677 15.1975C14.7098 14.5686 14.7098 13.5013 14.0677 12.8533L10.1962 8.92723C9.57301 8.2983 8.51543 8.27924 7.87333 8.90817C7.25012 9.53711 7.25012 10.6044 7.87333 11.2524L11.7448 15.1975C12.3869 15.8455 13.4445 15.8455 14.0677 15.1975ZM30.7057 15.3881C31.3478 16.0361 32.4242 16.0361 33.0474 15.3881L36.9378 11.462C37.5799 10.814 37.5799 9.74675 36.9378 9.09876C36.3146 8.46982 35.257 8.46982 34.6338 9.09876L30.7057 13.0439C30.0825 13.6919 30.0825 14.7592 30.7057 15.3881ZM20.9986 36.9243C20.9797 37.6676 21.8296 37.8963 22.3206 37.4199L25.1912 34.5039L28.4205 42.5657C28.5716 42.9087 28.9493 43.0993 29.2893 42.9469L31.1778 42.2036C31.5177 42.032 31.6499 41.6318 31.48 41.2888L28.0806 33.3604L32.1598 33.1889C32.8586 33.1507 33.2174 32.4646 32.7075 31.9119L22.3772 21.22C21.9051 20.7245 21.1875 20.9913 21.1686 21.6965L20.9986 36.9243ZM10.8383 23.6786C10.8383 22.7828 10.0829 22.0205 9.17642 22.0205H3.64302C2.75541 22.0205 2 22.7828 2 23.6786C2 24.5744 2.75541 25.3367 3.64302 25.3367H9.17642C10.0829 25.3367 10.8383 24.5744 10.8383 23.6786ZM34.1806 23.6786C34.1806 24.5744 34.936 25.3367 35.8236 25.3367H41.3381C42.2446 25.3367 43 24.5744 43 23.6786C43 22.7828 42.2446 22.0205 41.3381 22.0205H35.8236C34.936 22.0205 34.1806 22.7828 34.1806 23.6786ZM14.2566 31.9882C13.6522 31.3592 12.5758 31.3592 11.9337 31.9882L8.0433 35.8952C7.42008 36.5241 7.42008 37.6104 8.02441 38.2394C8.64763 38.8683 9.72409 38.8874 10.3662 38.2584L14.2566 34.3324C14.8987 33.7034 14.8987 32.6362 14.2566 31.9882Z" fill="white"/>
</svg>
