<svg width="33" height="33" viewBox="0 0 33 33" fill="none" xmlns="http://www.w3.org/2000/svg">
<g clip-path="url(#clip0_207_745)">
<path d="M12.0001 18.0001H8.00005V21.0001C8.00021 21.1979 7.94165 21.3914 7.83177 21.556C7.7219 21.7206 7.56567 21.8489 7.38284 21.9247C7.20002 22.0004 6.99883 22.0202 6.80475 21.9816C6.61066 21.9429 6.43241 21.8476 6.29255 21.7076L2.29255 17.7076C2.19958 17.6147 2.12582 17.5044 2.07549 17.383C2.02517 17.2616 1.99927 17.1315 1.99927 17.0001C1.99927 16.8686 2.02517 16.7385 2.07549 16.6171C2.12582 16.4957 2.19958 16.3854 2.29255 16.2926L6.29255 12.2926C6.43241 12.1525 6.61066 12.0572 6.80475 12.0185C6.99883 11.9799 7.20002 11.9997 7.38284 12.0754C7.56567 12.1512 7.7219 12.2795 7.83177 12.4441C7.94165 12.6087 8.00021 12.8022 8.00005 13.0001V16.0001H12.0001C12.2653 16.0001 12.5196 16.1054 12.7072 16.2929C12.8947 16.4805 13.0001 16.7348 13.0001 17.0001C13.0001 17.2653 12.8947 17.5196 12.7072 17.7072C12.5196 17.8947 12.2653 18.0001 12.0001 18.0001ZM12.0001 9.00005H15.0001V13.0001C15.0001 13.2653 15.1054 13.5196 15.2929 13.7072C15.4805 13.8947 15.7348 14.0001 16.0001 14.0001C16.2653 14.0001 16.5196 13.8947 16.7072 13.7072C16.8947 13.5196 17.0001 13.2653 17.0001 13.0001V9.00005H20.0001C20.1979 9.00021 20.3914 8.94165 20.556 8.83177C20.7206 8.7219 20.8489 8.56567 20.9247 8.38284C21.0004 8.20002 21.0202 7.99883 20.9816 7.80475C20.9429 7.61066 20.8476 7.43241 20.7076 7.29255L16.7076 3.29255C16.6147 3.19958 16.5044 3.12582 16.383 3.07549C16.2616 3.02517 16.1315 2.99927 16.0001 2.99927C15.8686 2.99927 15.7385 3.02517 15.6171 3.07549C15.4957 3.12582 15.3854 3.19958 15.2926 3.29255L11.2926 7.29255C11.1525 7.43241 11.0572 7.61066 11.0185 7.80475C10.9799 7.99883 10.9997 8.20002 11.0754 8.38284C11.1512 8.56567 11.2795 8.7219 11.4441 8.83177C11.6087 8.94165 11.8022 9.00021 12.0001 9.00005ZM29.7076 16.2926L25.7076 12.2926C25.5677 12.1525 25.3894 12.0572 25.1954 12.0185C25.0013 11.9799 24.8001 11.9997 24.6173 12.0754C24.4344 12.1512 24.2782 12.2795 24.1683 12.4441C24.0585 12.6087 23.9999 12.8022 24.0001 13.0001V16.0001H20.0001C19.7348 16.0001 19.4805 16.1054 19.2929 16.2929C19.1054 16.4805 19.0001 16.7348 19.0001 17.0001C19.0001 17.2653 19.1054 17.5196 19.2929 17.7072C19.4805 17.8947 19.7348 18.0001 20.0001 18.0001H24.0001V21.0001C23.9999 21.1979 24.0585 21.3914 24.1683 21.556C24.2782 21.7206 24.4344 21.8489 24.6173 21.9247C24.8001 22.0004 25.0013 22.0202 25.1954 21.9816C25.3894 21.9429 25.5677 21.8476 25.7076 21.7076L29.7076 17.7076C29.8005 17.6147 29.8743 17.5044 29.9246 17.383C29.9749 17.2616 30.0008 17.1315 30.0008 17.0001C30.0008 16.8686 29.9749 16.7385 29.9246 16.6171C29.8743 16.4957 29.8005 16.3854 29.7076 16.2926ZM20.0001 25.0001H17.0001V21.0001C17.0001 20.7348 16.8947 20.4805 16.7072 20.2929C16.5196 20.1054 16.2653 20.0001 16.0001 20.0001C15.7348 20.0001 15.4805 20.1054 15.2929 20.2929C15.1054 20.4805 15.0001 20.7348 15.0001 21.0001V25.0001H12.0001C11.8022 24.9999 11.6087 25.0585 11.4441 25.1683C11.2795 25.2782 11.1512 25.4344 11.0754 25.6173C10.9997 25.8001 10.9799 26.0013 11.0185 26.1954C11.0572 26.3894 11.1525 26.5677 11.2926 26.7076L15.2926 30.7076C15.3854 30.8005 15.4957 30.8743 15.6171 30.9246C15.7385 30.9749 15.8686 31.0008 16.0001 31.0008C16.1315 31.0008 16.2616 30.9749 16.383 30.9246C16.5044 30.8743 16.6147 30.8005 16.7076 30.7076L20.7076 26.7076C20.8476 26.5677 20.9429 26.3894 20.9816 26.1954C21.0202 26.0013 21.0004 25.8001 20.9247 25.6173C20.8489 25.4344 20.7206 25.2782 20.556 25.1683C20.3914 25.0585 20.1979 24.9999 20.0001 25.0001Z" fill="white"/>
</g>
<defs>
<clipPath id="clip0_207_745">
<rect width="32" height="32" fill="white" transform="translate(0.490234 0.633301)"/>
</clipPath>
</defs>
</svg>
