<svg width="33" height="32" viewBox="0 0 33 32" fill="none" xmlns="http://www.w3.org/2000/svg">
<path fill-rule="evenodd" clip-rule="evenodd" d="M16.5049 5.28595V27.4472C16.5049 27.7113 16.3855 27.8935 16.1468 27.9937C15.8714 28.0757 15.6557 28.0301 15.4996 27.8571L9.19274 20.9867H4.75864C4.59339 20.9867 4.45339 20.9297 4.33864 20.8159C4.22388 20.702 4.1665 20.5631 4.1665 20.3992V12.3248C4.1665 12.1609 4.22388 12.022 4.33864 11.9081C4.45339 11.7943 4.59339 11.7373 4.75864 11.7373H9.19274L15.4996 4.87606C15.6557 4.703 15.8714 4.65745 16.1468 4.73943C16.3855 4.83963 16.5049 5.0218 16.5049 5.28595ZM23.1312 7.30729C26.7046 8.88997 29.0554 12.4155 29.0554 16.3666C29.0554 20.3265 26.6941 23.8584 23.1086 25.4358L21.9964 22.9473C24.5986 21.8025 26.3117 19.2401 26.3117 16.3666C26.3117 13.4994 24.6063 10.9418 22.0128 9.79308L23.1312 7.30729ZM20.432 11.5708C22.3235 12.4085 23.5681 14.275 23.5681 16.3666C23.5681 18.4628 22.3179 20.3327 20.42 21.1677L19.3079 18.6791C20.2225 18.2767 20.8244 17.3765 20.8244 16.3666C20.8244 15.3589 20.2252 14.4603 19.3136 14.0566L20.432 11.5708Z" fill="white"/>
</svg>
