<svg width="33" height="33" viewBox="0 0 33 33" fill="none" xmlns="http://www.w3.org/2000/svg">
<path fill-rule="evenodd" clip-rule="evenodd" d="M16.2207 5.91939V28.0806C16.2207 28.3448 16.1013 28.527 15.8627 28.6271C15.5872 28.7091 15.3715 28.6636 15.2154 28.4905L8.90856 21.6201H4.47446C4.30921 21.6201 4.16921 21.5632 4.05446 21.4493C3.9397 21.3355 3.88232 21.1966 3.88232 21.0326V12.9583C3.88232 12.7943 3.9397 12.6554 4.05446 12.5416C4.16921 12.4277 4.30921 12.3708 4.47446 12.3708H8.90856L15.2154 5.5095C15.3715 5.33643 15.5872 5.29089 15.8627 5.37287C16.1013 5.47306 16.2207 5.65523 16.2207 5.91939ZM22.8471 7.94073C26.4204 9.52341 28.7712 13.0489 28.7712 17C28.7712 20.9599 26.4099 24.4919 22.8244 26.0693L21.7123 23.5807C24.3145 22.4359 26.0276 19.8736 26.0276 17C26.0276 14.1329 24.3221 11.5752 21.7287 10.4265L22.8471 7.94073ZM20.1479 12.2042C22.0393 13.042 23.2839 14.9085 23.2839 17C23.2839 19.0963 22.0338 20.9661 20.1359 21.8011L19.0237 19.3126C19.9384 18.9102 20.5402 18.0099 20.5402 17C20.5402 15.9924 19.9411 15.0938 19.0295 14.69L20.1479 12.2042Z" fill="white"/>
</svg>
