<svg width="33" height="32" viewBox="0 0 33 32" fill="none" xmlns="http://www.w3.org/2000/svg">
<path fill-rule="evenodd" clip-rule="evenodd" d="M28.6706 19.0897C28.7088 19.1382 28.7279 19.1919 28.7279 19.2508C28.7279 19.3062 28.7088 19.3582 28.6706 19.4067L27.0973 20.9761C27.0486 21.0142 26.9965 21.0332 26.941 21.0332C26.8819 21.0332 26.8281 21.0142 26.7795 20.9761L24.0495 18.253L21.3196 20.9761C21.271 21.0142 21.2172 21.0332 21.1581 21.0332C21.1026 21.0332 21.0505 21.0142 21.0018 20.9761L19.4285 19.4067C19.3903 19.3582 19.3712 19.3062 19.3712 19.2508C19.3712 19.1919 19.3903 19.1382 19.4285 19.0897L22.1584 16.3666L19.4285 13.6435C19.3903 13.595 19.3712 13.5413 19.3712 13.4824C19.3712 13.427 19.3903 13.375 19.4285 13.3265L21.0018 11.7571C21.0505 11.719 21.1026 11.6999 21.1581 11.6999C21.2172 11.6999 21.271 11.719 21.3196 11.7571L24.0495 14.4802L26.7795 11.7571C26.8281 11.719 26.8819 11.6999 26.941 11.6999C26.9965 11.6999 27.0486 11.719 27.0973 11.7571L28.6706 13.3265C28.7088 13.375 28.7279 13.427 28.7279 13.4824C28.7279 13.5413 28.7088 13.595 28.6706 13.6435L25.9407 16.3666L28.6706 19.0897ZM16.4392 5.28595V27.4472C16.4392 27.7113 16.3205 27.8935 16.083 27.9937C15.8091 28.0757 15.5945 28.0301 15.4393 27.8571L9.16597 20.9867H4.75548C4.59112 20.9867 4.45186 20.9297 4.33772 20.8159C4.22357 20.702 4.1665 20.5631 4.1665 20.3992V12.3248C4.1665 12.1609 4.22357 12.022 4.33772 11.9081C4.45186 11.7943 4.59112 11.7373 4.75548 11.7373H9.16597L15.4393 4.87606C15.5945 4.703 15.8091 4.65745 16.083 4.73943C16.3205 4.83963 16.4392 5.0218 16.4392 5.28595Z" fill="white"/>
</svg>
