<svg width="33" height="33" viewBox="0 0 33 33" fill="none" xmlns="http://www.w3.org/2000/svg">
<path fill-rule="evenodd" clip-rule="evenodd" d="M28.3864 19.7231C28.4246 19.7716 28.4437 19.8253 28.4437 19.8842C28.4437 19.9396 28.4246 19.9916 28.3864 20.0401L26.8131 21.6095C26.7645 21.6476 26.7124 21.6667 26.6568 21.6667C26.5977 21.6667 26.5439 21.6476 26.4953 21.6095L23.7654 18.8864L21.0355 21.6095C20.9868 21.6476 20.933 21.6667 20.8739 21.6667C20.8184 21.6667 20.7663 21.6476 20.7177 21.6095L19.1443 20.0401C19.1061 19.9916 19.087 19.9396 19.087 19.8842C19.087 19.8253 19.1061 19.7716 19.1443 19.7231L21.8742 17L19.1443 14.2769C19.1061 14.2284 19.087 14.1747 19.087 14.1158C19.087 14.0604 19.1061 14.0084 19.1443 13.9599L20.7177 12.3905C20.7663 12.3524 20.8184 12.3333 20.8739 12.3333C20.933 12.3333 20.9868 12.3524 21.0355 12.3905L23.7654 15.1136L26.4953 12.3905C26.5439 12.3524 26.5977 12.3333 26.6568 12.3333C26.7124 12.3333 26.7645 12.3524 26.8131 12.3905L28.3864 13.9599C28.4246 14.0084 28.4437 14.0604 28.4437 14.1158C28.4437 14.1747 28.4246 14.2284 28.3864 14.2769L25.6565 17L28.3864 19.7231ZM16.155 5.91939V28.0806C16.155 28.3448 16.0363 28.527 15.7989 28.6271C15.5249 28.7091 15.3103 28.6636 15.1551 28.4905L8.88179 21.6201H4.4713C4.30694 21.6201 4.16768 21.5632 4.05354 21.4493C3.9394 21.3355 3.88232 21.1966 3.88232 21.0326V12.9583C3.88232 12.7943 3.9394 12.6554 4.05354 12.5416C4.16768 12.4277 4.30694 12.3708 4.4713 12.3708H8.88179L15.1551 5.5095C15.3103 5.33643 15.5249 5.29089 15.7989 5.37287C16.0363 5.47306 16.155 5.65523 16.155 5.91939Z" fill="white"/>
</svg>
