<svg width="20" height="20" viewBox="0 0 20 20" fill="none" xmlns="http://www.w3.org/2000/svg">
<path fill-rule="evenodd" clip-rule="evenodd" d="M1 5.26756V1.45386C1 0.49757 2.21346 0.086772 2.79436 0.846406L5.97064 5H14.0294L17.2056 0.846406C17.7865 0.086772 19 0.49757 19 1.45386V5.26756C19.5978 5.61337 20 6.25972 20 7V17C20 18.1046 19.1046 19 18 19H2C0.895431 19 0 18.1046 0 17V7C0 6.25972 0.402199 5.61337 1 5.26756ZM7.88277 15.39C7.92074 15.39 7.95634 15.377 7.98957 15.3509L9.06469 14.2764C9.0908 14.2432 9.10385 14.2076 9.10385 14.1696C9.10385 14.1293 9.0908 14.0926 9.06469 14.0593L7.19925 12.195L9.06469 10.3307C9.0908 10.2975 9.10385 10.2607 9.10385 10.2204C9.10385 10.1824 9.0908 10.1468 9.06469 10.1136L7.98957 9.03914C7.95634 9.01305 7.92074 9 7.88277 9C7.84242 9 7.80563 9.01305 7.77241 9.03914L5.90697 10.9035L4.04152 9.03914C4.0083 9.01305 3.97151 9 3.93116 9C3.89319 9 3.85759 9.01305 3.82436 9.03914L2.74924 10.1136C2.72314 10.1468 2.71008 10.1824 2.71008 10.2204C2.71008 10.2607 2.72314 10.2975 2.74924 10.3307L4.61468 12.195L2.74924 14.0593C2.72314 14.0926 2.71008 14.1293 2.71008 14.1696C2.71008 14.2076 2.72314 14.2432 2.74924 14.2764L3.82436 15.3509C3.85759 15.377 3.89319 15.39 3.93116 15.39C3.97151 15.39 4.0083 15.377 4.04152 15.3509L5.90697 13.4865L7.77241 15.3509C7.80563 15.377 7.84242 15.39 7.88277 15.39ZM16.4078 15.39C16.4458 15.39 16.4814 15.377 16.5146 15.3509L17.5897 14.2764C17.6158 14.2432 17.6289 14.2076 17.6289 14.1696C17.6289 14.1293 17.6158 14.0926 17.5897 14.0593L15.7243 12.195L17.5897 10.3307C17.6158 10.2975 17.6289 10.2607 17.6289 10.2204C17.6289 10.1824 17.6158 10.1468 17.5897 10.1136L16.5146 9.03914C16.4814 9.01305 16.4458 9 16.4078 9C16.3674 9 16.3307 9.01305 16.2974 9.03914L14.432 10.9035L12.5665 9.03914C12.5333 9.01305 12.4965 9 12.4562 9C12.4182 9 12.3826 9.01305 12.3494 9.03914L11.2743 10.1136C11.2482 10.1468 11.2351 10.1824 11.2351 10.2204C11.2351 10.2607 11.2482 10.2975 11.2743 10.3307L13.1397 12.195L11.2743 14.0593C11.2482 14.0926 11.2351 14.1293 11.2351 14.1696C11.2351 14.2076 11.2482 14.2432 11.2743 14.2764L12.3494 15.3509C12.3826 15.377 12.4182 15.39 12.4562 15.39C12.4965 15.39 12.5333 15.377 12.5665 15.3509L14.432 13.4865L16.2974 15.3509C16.3307 15.377 16.3674 15.39 16.4078 15.39Z" fill="#5C5C5C"/>
</svg>
