<svg width="20" height="15" viewBox="0 0 20 15" fill="none" xmlns="http://www.w3.org/2000/svg">
<path d="M9.56938 10.999C10.0093 10.999 10.3081 10.7085 10.3164 10.252C10.3414 7.19727 10.3663 4.12598 10.3912 1.06299C10.3912 0.589844 10.0093 0.266113 9.56108 0.266113C9.11284 0.266113 8.731 0.589844 8.731 1.06299C8.7642 4.12598 8.78911 7.19727 8.82231 10.252C8.83061 10.7085 9.12944 10.999 9.56938 10.999ZM7.50248 1.37012C4.4644 1.87646 1.71684 3.37891 0.0898869 5.37939C-0.026324 5.51221 -0.026324 5.70312 0.114789 5.85254L1.2603 7.01465C1.42631 7.17236 1.65873 7.17236 1.81645 7.00635C3.3853 5.33789 5.35258 4.27539 7.53569 3.89355L7.50248 1.37012ZM11.6114 1.37842L11.5865 3.90186C13.7696 4.26709 15.7203 5.34619 17.3223 7.01465C17.4717 7.16406 17.6958 7.15576 17.8619 6.99805L19.0074 5.85254C19.1568 5.70312 19.1485 5.51221 19.0323 5.37939C17.3887 3.39551 14.6827 1.85156 11.6114 1.37842ZM11.5782 6.29248L11.5533 8.94043C12.4664 9.27246 13.2798 9.82031 13.8858 10.4761C14.0352 10.6421 14.2427 10.6338 14.4253 10.4678L15.7037 9.19775C15.8365 9.05664 15.8531 8.87402 15.7286 8.73291C14.8072 7.6123 13.313 6.67432 11.5782 6.29248ZM7.56059 6.29248C5.82573 6.69922 4.34819 7.5874 3.4019 8.73291C3.27739 8.87402 3.28569 9.04834 3.4268 9.19775L4.71342 10.4844C4.89604 10.6587 5.12016 10.6338 5.28618 10.4429C5.87553 9.78711 6.68071 9.25586 7.58549 8.92383L7.56059 6.29248ZM9.56108 15C10.2666 15 10.8228 14.4272 10.8228 13.73C10.8228 13.0244 10.2666 12.4683 9.56108 12.4683C8.86381 12.4683 8.29936 13.0244 8.29936 13.73C8.29936 14.4272 8.86381 15 9.56108 15Z" fill="#5C5C5C"/>
</svg>
