<svg width="33" height="33" viewBox="0 0 33 33" fill="none" xmlns="http://www.w3.org/2000/svg">
<path fill-rule="evenodd" clip-rule="evenodd" d="M14.2098 24.223C8.58035 24.223 4 19.6868 4 14.1115C4 8.53624 8.58035 4 14.2098 4C19.8393 4 24.4197 8.53624 24.4197 14.1115C24.4197 16.4176 23.6392 18.5337 22.3214 20.2316L28.5778 26.4658C28.8465 26.7319 29 27.0993 29 27.5048C29 28.3538 28.3987 29 27.5287 29C27.1192 29 26.7354 28.8606 26.4411 28.5692L20.1464 22.3224C18.4703 23.5134 16.436 24.223 14.2098 24.223ZM9.32355 15.2621H19.0019C19.7551 15.2621 20.3764 14.6795 20.3764 13.9734C20.3764 13.2672 19.7551 12.667 19.0019 12.667H9.32355C8.57038 12.667 7.93018 13.2672 7.93018 13.9734C7.93018 14.6795 8.57038 15.2621 9.32355 15.2621Z" fill="white"/>
</svg>
