<svg width="33" height="33" viewBox="0 0 33 33" fill="none" xmlns="http://www.w3.org/2000/svg">
<path fill-rule="evenodd" clip-rule="evenodd" d="M14.2098 24.223C8.58035 24.223 4 19.6868 4 14.1115C4 8.53624 8.58035 4 14.2098 4C19.8393 4 24.4197 8.53624 24.4197 14.1115C24.4197 16.4176 23.6392 18.5337 22.3214 20.2316L28.5778 26.4658C28.8465 26.7319 29 27.0993 29 27.5048C29 28.3538 28.3987 29 27.5287 29C27.1192 29 26.7354 28.8606 26.4411 28.5692L20.1464 22.3224C18.4703 23.5134 16.436 24.223 14.2098 24.223ZM8.26294 13.9644C8.26294 14.6898 8.83463 15.256 9.56712 15.256H12.8544V18.5116C12.8544 19.237 13.4261 19.8032 14.1585 19.8032C14.891 19.8032 15.4806 19.237 15.4806 18.5116V15.256H18.75C19.4824 15.256 20.0541 14.6898 20.0541 13.9644C20.0541 13.239 19.4824 12.6551 18.75 12.6551H15.4806V9.4172C15.4806 8.69177 14.891 8.12558 14.1585 8.12558C13.4261 8.12558 12.8544 8.69177 12.8544 9.4172V12.6551H9.56712C8.83463 12.6551 8.26294 13.239 8.26294 13.9644Z" fill="white"/>
</svg>
